<?xml version="1.0" encoding="UTF-8" standalone="no"?>
<!DOCTYPE svg PUBLIC "-//W3C//DTD SVG 1.1//EN" "http://www.w3.org/Graphics/SVG/1.1/DTD/svg11.dtd">
<!-- Generated by graphviz version 2.40.1 (20161225.0304)
 -->
<!-- Title: PostgreSQL Pages: 1 -->
<svg width="451pt" height="670pt" viewBox="0.00 0.00 451.04 669.60" xmlns="http://www.w3.org/2000/svg" xmlns:xlink="http://www.w3.org/1999/xlink">
<g id="graph0" class="graph" transform="scale(1 1) rotate(0) translate(4 665.6)">
<title>PostgreSQL</title>
<polygon fill="#ffffff" stroke="transparent" points="-4,4 -4,-665.6 447.0376,-665.6 447.0376,4 -4,4"/>
<!-- carts -->
<g id="node1" class="node">
<title>carts</title>
<polygon fill="none" stroke="#000000" points="317.5218,-374.5 317.5218,-465.7 441.2406,-465.7 441.2406,-374.5 317.5218,-374.5"/>
<text text-anchor="middle" x="379.3812" y="-449.1" font-family="Times,serif" font-size="14.00" fill="#000000">carts</text>
<polyline fill="none" stroke="#000000" points="317.5218,-440.9 441.2406,-440.9 "/>
<text text-anchor="start" x="325.5218" y="-424.3" font-family="Times,serif" font-size="14.00" fill="#000000">quantity : integer</text>
<polyline fill="none" stroke="#000000" points="317.5218,-416.1 441.2406,-416.1 "/>
<text text-anchor="start" x="325.5218" y="-399.5" font-family="Times,serif" font-size="14.00" fill="#000000">user_id : integer</text>
<text text-anchor="start" x="325.5218" y="-382.7" font-family="Times,serif" font-size="14.00" fill="#000000"> product_id : bigint</text>
</g>
<!-- products -->
<g id="node6" class="node">
<title>products</title>
<polygon fill="none" stroke="#000000" points="291.9376,-145.5 291.9376,-303.9 428.8248,-303.9 428.8248,-145.5 291.9376,-145.5"/>
<text text-anchor="middle" x="360.3812" y="-287.3" font-family="Times,serif" font-size="14.00" fill="#000000">products</text>
<polyline fill="none" stroke="#000000" points="291.9376,-279.1 428.8248,-279.1 "/>
<text text-anchor="start" x="299.9376" y="-262.5" font-family="Times,serif" font-size="14.00" fill="#000000">name : varchar(255)</text>
<text text-anchor="start" x="299.9376" y="-245.7" font-family="Times,serif" font-size="14.00" fill="#000000"> description : text</text>
<text text-anchor="start" x="299.9376" y="-228.9" font-family="Times,serif" font-size="14.00" fill="#000000"> price : numeric</text>
<text text-anchor="start" x="299.9376" y="-212.1" font-family="Times,serif" font-size="14.00" fill="#000000"> stock : integer</text>
<text text-anchor="start" x="299.9376" y="-195.3" font-family="Times,serif" font-size="14.00" fill="#000000"> image : varchar(255)</text>
<text text-anchor="start" x="299.9376" y="-178.5" font-family="Times,serif" font-size="14.00" fill="#000000"> category_id : bigint</text>
<polyline fill="none" stroke="#000000" points="291.9376,-170.3 428.8248,-170.3 "/>
<text text-anchor="start" x="299.9376" y="-153.7" font-family="Times,serif" font-size="14.00" fill="#000000">product_id : integer</text>
</g>
<!-- carts&#45;&gt;products -->
<g id="edge1" class="edge">
<title>carts-&gt;products</title>
<path fill="none" stroke="#595959" d="M373.1733,-374.2874C373.1733,-374.2874 373.1733,-314.2746 373.1733,-314.2746"/>
<polygon fill="#595959" stroke="#595959" points="376.6734,-314.2746 373.1733,-304.2746 369.6734,-314.2747 376.6734,-314.2746"/>
<text text-anchor="middle" x="412.7094" y="-326.6" font-family="Times,serif" font-size="14.00" fill="#000000">product_id</text>
</g>
<!-- users -->
<g id="node7" class="node">
<title>users</title>
<polygon fill="none" stroke="#000000" points="89.1094,-162.3 89.1094,-287.1 251.653,-287.1 251.653,-162.3 89.1094,-162.3"/>
<text text-anchor="middle" x="170.3812" y="-270.5" font-family="Times,serif" font-size="14.00" fill="#000000">users</text>
<polyline fill="none" stroke="#000000" points="89.1094,-262.3 251.653,-262.3 "/>
<text text-anchor="start" x="97.1094" y="-245.7" font-family="Times,serif" font-size="14.00" fill="#000000">last_name : varchar(255)</text>
<text text-anchor="start" x="97.1094" y="-228.9" font-family="Times,serif" font-size="14.00" fill="#000000"> first_name : varchar(255)</text>
<text text-anchor="start" x="97.1094" y="-212.1" font-family="Times,serif" font-size="14.00" fill="#000000"> email : varchar(255)</text>
<text text-anchor="start" x="97.1094" y="-195.3" font-family="Times,serif" font-size="14.00" fill="#000000"> role : integer</text>
<polyline fill="none" stroke="#000000" points="89.1094,-187.1 251.653,-187.1 "/>
<text text-anchor="start" x="97.1094" y="-170.5" font-family="Times,serif" font-size="14.00" fill="#000000">user_id : integer</text>
</g>
<!-- carts&#45;&gt;users -->
<g id="edge2" class="edge">
<title>carts-&gt;users</title>
<path fill="none" stroke="#595959" d="M317.1449,-380C274.375,-380 225.2759,-380 225.2759,-380 225.2759,-380 225.2759,-297.4188 225.2759,-297.4188"/>
<polygon fill="#595959" stroke="#595959" points="228.776,-297.4188 225.2759,-287.4188 221.776,-297.4188 228.776,-297.4188"/>
<text text-anchor="middle" x="338.9864" y="-326.6" font-family="Times,serif" font-size="14.00" fill="#000000">user_id</text>
</g>
<!-- categories -->
<g id="node2" class="node">
<title>categories</title>
<polygon fill="none" stroke="#000000" points="294.4576,-.5 294.4576,-91.7 426.3048,-91.7 426.3048,-.5 294.4576,-.5"/>
<text text-anchor="middle" x="360.3812" y="-75.1" font-family="Times,serif" font-size="14.00" fill="#000000">categories</text>
<polyline fill="none" stroke="#000000" points="294.4576,-66.9 426.3048,-66.9 "/>
<text text-anchor="start" x="302.4576" y="-50.3" font-family="Times,serif" font-size="14.00" fill="#000000">name : varchar(255)</text>
<text text-anchor="start" x="302.4576" y="-33.5" font-family="Times,serif" font-size="14.00" fill="#000000"> description : text</text>
<polyline fill="none" stroke="#000000" points="294.4576,-25.3 426.3048,-25.3 "/>
<text text-anchor="start" x="302.4576" y="-8.7" font-family="Times,serif" font-size="14.00" fill="#000000">category_id : integer</text>
</g>
<!-- favorites -->
<g id="node3" class="node">
<title>favorites</title>
<polygon fill="none" stroke="#000000" points="172.5218,-386.9 172.5218,-453.3 296.2406,-453.3 296.2406,-386.9 172.5218,-386.9"/>
<text text-anchor="middle" x="234.3812" y="-436.7" font-family="Times,serif" font-size="14.00" fill="#000000">favorites</text>
<polyline fill="none" stroke="#000000" points="172.5218,-428.5 296.2406,-428.5 "/>
<text text-anchor="start" x="180.5218" y="-411.9" font-family="Times,serif" font-size="14.00" fill="#000000">user_id : integer</text>
<text text-anchor="start" x="180.5218" y="-395.1" font-family="Times,serif" font-size="14.00" fill="#000000"> product_id : bigint</text>
</g>
<!-- favorites&#45;&gt;products -->
<g id="edge3" class="edge">
<title>favorites-&gt;products</title>
<path fill="none" stroke="#595959" d="M271.7953,-386.8435C271.7953,-350.0836 271.7953,-296 271.7953,-296 271.7953,-296 281.8968,-296 281.8968,-296"/>
<polygon fill="#595959" stroke="#595959" points="281.8968,-299.5001 291.8968,-296 281.8968,-292.5001 281.8968,-299.5001"/>
<text text-anchor="middle" x="264.7094" y="-326.6" font-family="Times,serif" font-size="14.00" fill="#000000">product_id</text>
</g>
<!-- favorites&#45;&gt;users -->
<g id="edge4" class="edge">
<title>favorites-&gt;users</title>
<path fill="none" stroke="#595959" d="M198.8989,-386.5095C198.8989,-386.5095 198.8989,-297.4151 198.8989,-297.4151"/>
<polygon fill="#595959" stroke="#595959" points="202.399,-297.4151 198.8989,-287.4151 195.399,-297.4152 202.399,-297.4151"/>
<text text-anchor="middle" x="190.9864" y="-326.6" font-family="Times,serif" font-size="14.00" fill="#000000">user_id</text>
</g>
<!-- orders -->
<g id="node4" class="node">
<title>orders</title>
<polygon fill="none" stroke="#000000" points="28.3836,-357.7 28.3836,-482.5 154.3788,-482.5 154.3788,-357.7 28.3836,-357.7"/>
<text text-anchor="middle" x="91.3812" y="-465.9" font-family="Times,serif" font-size="14.00" fill="#000000">orders</text>
<polyline fill="none" stroke="#000000" points="28.3836,-457.7 154.3788,-457.7 "/>
<text text-anchor="start" x="36.3836" y="-441.1" font-family="Times,serif" font-size="14.00" fill="#000000">user_id : integer</text>
<text text-anchor="start" x="36.3836" y="-424.3" font-family="Times,serif" font-size="14.00" fill="#000000"> order_date : date</text>
<text text-anchor="start" x="36.3836" y="-407.5" font-family="Times,serif" font-size="14.00" fill="#000000"> prepare_date : date</text>
<text text-anchor="start" x="36.3836" y="-390.7" font-family="Times,serif" font-size="14.00" fill="#000000"> status : integer</text>
<polyline fill="none" stroke="#000000" points="28.3836,-382.5 154.3788,-382.5 "/>
<text text-anchor="start" x="36.3836" y="-365.9" font-family="Times,serif" font-size="14.00" fill="#000000">order_id : integer</text>
</g>
<!-- orders&#45;&gt;users -->
<g id="edge5" class="edge">
<title>orders-&gt;users</title>
<path fill="none" stroke="#595959" d="M121.7441,-357.4679C121.7441,-357.4679 121.7441,-297.3126 121.7441,-297.3126"/>
<polygon fill="#595959" stroke="#595959" points="125.2442,-297.3126 121.7441,-287.3126 118.2442,-297.3126 125.2442,-297.3126"/>
<text text-anchor="middle" x="119.9864" y="-326.6" font-family="Times,serif" font-size="14.00" fill="#000000">user_id</text>
</g>
<!-- orders_products -->
<g id="node5" class="node">
<title>orders_products</title>
<polygon fill="none" stroke="#000000" points="0,-536.3 0,-661.1 182.7624,-661.1 182.7624,-536.3 0,-536.3"/>
<text text-anchor="middle" x="91.3812" y="-644.5" font-family="Times,serif" font-size="14.00" fill="#000000">orders_products</text>
<polyline fill="none" stroke="#000000" points="0,-636.3 182.7624,-636.3 "/>
<text text-anchor="start" x="8" y="-619.7" font-family="Times,serif" font-size="14.00" fill="#000000">description : text</text>
<text text-anchor="start" x="8" y="-602.9" font-family="Times,serif" font-size="14.00" fill="#000000"> quantity : integer</text>
<text text-anchor="start" x="8" y="-586.1" font-family="Times,serif" font-size="14.00" fill="#000000"> price : numeric</text>
<polyline fill="none" stroke="#000000" points="0,-577.9 182.7624,-577.9 "/>
<text text-anchor="start" x="8" y="-561.3" font-family="Times,serif" font-size="14.00" fill="#000000">order_id : bigint</text>
<text text-anchor="start" x="8" y="-544.5" font-family="Times,serif" font-size="14.00" fill="#000000"> product_name : varchar(255)</text>
</g>
<!-- orders_products&#45;&gt;orders -->
<g id="edge6" class="edge">
<title>orders_products-&gt;orders</title>
<path fill="none" stroke="#595959" d="M91.3812,-536.2344C91.3812,-536.2344 91.3812,-492.5303 91.3812,-492.5303"/>
<polygon fill="#595959" stroke="#595959" points="94.8813,-492.5303 91.3812,-482.5303 87.8813,-492.5304 94.8813,-492.5303"/>
<text text-anchor="middle" x="115.0944" y="-505.2" font-family="Times,serif" font-size="14.00" fill="#000000">order_id</text>
</g>
<!-- products&#45;&gt;categories -->
<g id="edge7" class="edge">
<title>products-&gt;categories</title>
<path fill="none" stroke="#595959" d="M360.3812,-145.3233C360.3812,-145.3233 360.3812,-101.9671 360.3812,-101.9671"/>
<polygon fill="#595959" stroke="#595959" points="363.8813,-101.967 360.3812,-91.9671 356.8813,-101.9671 363.8813,-101.967"/>
<text text-anchor="middle" x="393.424" y="-114.4" font-family="Times,serif" font-size="14.00" fill="#000000">category_id</text>
</g>
</g>
</svg>